<?xml version="1.0" encoding="UTF-8"?>
<svg xmlns="http://www.w3.org/2000/svg" xmlns:xlink="http://www.w3.org/1999/xlink"
     viewBox="210.78 699.80 605.69 103.37" width="606" height="103" role="img">
  <!-- FluxTech wordmark, outlined Poppins SemiBold in #1a1d21. Transparent. -->
  <g aria-label="FluxTech.">
    
<path transform="translate(204.810,799.000) scale(0.13000,-0.13000)" d="M500 698V585H209V406H432V295H209V0H69V698Z" fill="#1a1d21"/>    <path transform="translate(273.710,799.000) scale(0.13000,-0.13000)" d="M209 740V0H69V740Z" fill="#1a1d21"/>    <path transform="translate(309.850,799.000) scale(0.13000,-0.13000)" d="M592 554V0H451V70Q424 34 380.5 13.5Q337 -7 286 -7Q221 -7 171.0 20.5Q121 48 92.5 101.5Q64 155 64 229V554H204V249Q204 183 237.0 147.5Q270 112 327 112Q385 112 418.0 147.5Q451 183 451 249V554Z" fill="#1a1d21"/>    <path transform="translate(395.780,799.000) scale(0.13000,-0.13000)" d="M375 0 261 172 160 0H10L191 278L8 554H166L279 383L381 554H531L349 278L533 0Z" fill="#1a1d21"/>    <path transform="translate(465.980,799.000) scale(0.13000,-0.13000)" d="M544 698V585H358V0H218V585H32V698Z" fill="#1a1d21"/>    <path transform="translate(540.990,799.000) scale(0.13000,-0.13000)" d="M580 235H175Q180 175 217.0 141.0Q254 107 308 107Q386 107 419 174H570Q546 94 478.0 42.5Q410 -9 311 -9Q231 -9 167.5 26.5Q104 62 68.5 127.0Q33 192 33 277Q33 363 68.0 428.0Q103 493 166.0 528.0Q229 563 311 563Q390 563 452.5 529.0Q515 495 549.5 432.5Q584 370 584 289Q584 259 580 235ZM439 329Q438 383 400.0 415.5Q362 448 307 448Q255 448 219.5 416.5Q184 385 176 329Z" fill="#1a1d21"/>    <path transform="translate(621.200,799.000) scale(0.13000,-0.13000)" d="M307 563Q410 563 477.5 511.5Q545 460 568 367H417Q405 403 376.5 423.5Q348 444 306 444Q246 444 211.0 400.5Q176 357 176 277Q176 198 211.0 154.5Q246 111 306 111Q391 111 417 187H568Q545 97 477.0 44.0Q409 -9 307 -9Q227 -9 165.0 26.5Q103 62 68.0 126.5Q33 191 33 277Q33 363 68.0 427.5Q103 492 165.0 527.5Q227 563 307 563Z" fill="#1a1d21"/>    <path transform="translate(699.460,799.000) scale(0.13000,-0.13000)" d="M597 325V0H457V306Q457 372 424.0 407.5Q391 443 334 443Q276 443 242.5 407.5Q209 372 209 306V0H69V740H209V485Q236 521 281.0 541.5Q326 562 381 562Q444 562 493.0 534.5Q542 507 569.5 453.5Q597 400 597 325Z" fill="#1a1d21"/>    <path transform="translate(785.390,799.000) scale(0.13000,-0.13000)" d="M44 75Q44 110 68.5 133.5Q93 157 131 157Q168 157 192.0 133.5Q216 110 216 75Q216 40 192.0 16.5Q168 -7 131 -7Q93 -7 68.5 16.5Q44 40 44 75Z" fill="#1a1d21"/>
  </g>
</svg>
