<?xml version="1.0" encoding="UTF-8"?>
<svg xmlns="http://www.w3.org/2000/svg" xmlns:xlink="http://www.w3.org/1999/xlink"
     viewBox="330.48 263.89 363.39 357.12" width="363" height="357" role="img">
  <!-- FluxTech icon (gradient swirl). Transparent, self-contained. -->
  <defs>
    <linearGradient id="iconStops">
      <stop offset="0"          stop-color="#b5f200" stop-opacity="1"/>
      <stop offset="0.81818694" stop-color="#0a6fe6" stop-opacity="1"/>
    </linearGradient>
    <linearGradient xlink:href="#iconStops" id="iconGradient"
                    x1="349.33408" y1="366.55148"
                    x2="675.01453" y2="518.41876"
                    gradientUnits="userSpaceOnUse"/>
  </defs>
  <path d="m 367.9172,614.14023 c -20.78945,-10.26931 -35.37028,-32.48739 -35.33686,-55.76461 0.004,-2.76048 0.21648,-7.23136 0.19737,-9.99272 -0.51854,-74.95935 -0.19039,-149.92259 -0.27167,-224.88378 -0.003,-2.76094 0.50888,-7.18107 1.35045,-9.81053 6.44112,-20.12503 21.7503,-37.38054 41.85776,-44.24973 2.61237,-0.89245 7.02403,-1.61173 9.77747,-1.8214 39.29411,-2.99222 78.84081,-1.09914 118.24509,-1.54753 2.76006,-0.0314 7.23581,-0.0444 9.99715,-0.0233 40.21634,0.30722 80.50575,-0.97253 120.6643,1.00575 2.75755,0.13584 7.20239,0.64729 9.86546,1.37456 26.77725,7.3127 47.51353,33.11533 47.51176,61.03571 -1.8e-4,2.76051 -0.21177,7.23192 -0.19832,9.99331 0.36035,74.0199 0.6076,148.06595 -0.71368,222.07176 -0.0493,2.76033 -0.38933,7.22179 -1.01851,9.90967 -5.57019,23.79607 -26.4207,46.04287 -51.45473,47.22871 -2.75686,0.13059 -7.23564,-0.0267 -9.99698,-0.005 -81.2952,0.62693 -162.59653,0.17662 -243.89457,0.26432 -2.7607,0.003 -7.08092,-0.81583 -9.64949,-1.8297 -1.30409,-0.51476 -4.4569,-1.73253 -6.932,-2.95515 z M 524,604.9709 c 67.12059,-4.21304 129.07124,-53.39344 146.65141,-118.52127 0.71961,-2.66587 1.79053,-7.01407 2.39318,-9.7088 11.29765,-50.51772 -4.19308,-105.69363 -39.74852,-143.26298 -1.89804,-2.00555 -5.07884,-5.15822 -7.09564,-7.04432 -30.50617,-28.52927 -71.87679,-45.27308 -113.76691,-44.50053 -2.76083,0.0509 -7.23608,0.18571 -9.99472,0.30643 -68.77523,3.00949 -131.49491,55.54002 -148.15201,122.14858 -0.6699,2.6788 -1.59844,7.06007 -2.08227,9.77866 -7.18816,40.38938 0.98938,83.54695 24.00862,117.6631 1.54444,2.28898 4.14481,5.93497 5.80047,8.14486 28.23887,37.69185 73.00861,62.0099 119.99687,65.28144 2.75463,0.19179 7.22004,0.59272 9.97877,0.56972 4.00613,-0.0334 8.01899,-0.60967 12.01075,-0.85489 z m -39,-29.12056 c -31.01678,-7.07402 -59.82622,-24.38915 -80,-49.0525 13.66229,1.2534 29.14408,4.85119 43.58498,1.462 2.68662,-0.63053 6.97071,-1.94354 9.59719,-2.79462 29.85101,-9.67295 49.97707,-36.43761 62.34039,-64.41752 1.11604,-2.52576 2.85808,-6.65027 3.93592,-9.19264 11.32862,-26.72135 21.987,-57.46884 50.63286,-69.8207 28.88654,-14.57786 69.493,3.48272 75.23793,35.68744 0.48469,2.71704 0.90872,7.17935 1.17242,9.92797 5.13184,53.49042 -24.06417,108.33789 -71.53981,133.68135 -2.43589,1.30033 -6.41936,3.34553 -8.90338,4.55124 C 544.426,578.8094 513.95144,580.29887 485,575.85038 Z m -65,-73.86558 c -22.24592,-3.90917 -40.23753,-22.65359 -43.38246,-44.86397 -0.38699,-2.73298 -0.69751,-7.20369 -0.86941,-9.95954 -4.13924,-66.35596 49.5744,-129.51115 114.91283,-139.14712 2.73167,-0.40286 7.17432,-0.96359 9.91966,-1.25952 43.54803,-4.69419 89.41015,13.11248 117.86427,46.33455 -19.7831,-2.80941 -41.17859,-2.87624 -59.25539,6.69663 -2.43968,1.29198 -6.26471,3.62918 -8.55569,5.17003 -27.63012,18.58327 -38.54246,51.88854 -51.50253,81.28339 -1.11379,2.5262 -2.97404,6.59898 -4.20894,9.06876 -10.0526,20.10493 -25.28651,39.33012 -47.58778,45.2429 -2.66827,0.70745 -7.07817,1.5283 -9.81879,1.86039 -5.81898,0.7051 -11.73925,0.57874 -17.51577,-0.4265 z"  fill="url(#iconGradient)" fill-rule="nonzero"/>
</svg>
